<svg id="Calque_1" data-name="Calque 1" xmlns="http://www.w3.org/2000/svg" viewBox="0 0 67.06 56.54"><defs><style>.cls-1{fill:#fff;}</style></defs><title>splash_white</title><path class="cls-1" d="M410.81,343.77c-7.51-1.34-13.87-.33-21.15,4.44-11,7.19-21.81,18-26.24,42.65a.92.92,0,0,0,1.55.81c5-5,15.59-18.07,29.63-11.13,2.57,1.46,8.69,4,11.86,4.37C417.38,386,427.65,379,430,368.28,432.71,356.11,423,345.94,410.81,343.77Z" transform="translate(-363.41 -343.23)"/><path class="cls-1" d="M393.33,384.87a10.34,10.34,0,0,0-8.12-1.63c-4.94.87-10.39,3-15.68,11a.35.35,0,0,0,.42.52c2.53-1,8.22-4,12.11.56a16.18,16.18,0,0,0,3.52,3.33,8.31,8.31,0,0,0,10.8-2.29C399.17,392.53,397.28,387.48,393.33,384.87Z" transform="translate(-363.41 -343.23)"/></svg>